<svg width="33" height="48" viewBox="0 0 33 48" fill="none" xmlns="http://www.w3.org/2000/svg">
<path fill-rule="evenodd" clip-rule="evenodd" d="M16.4672 0L19.1677 3.44165C20.6499 5.36344 32.9218 22.2953 32.9092 30.6483C32.9092 39.7171 25.5235 47.1029 16.4546 47.1029C7.38573 47.1029 0 39.7171 0 30.6483C0 25.9757 2.66288 22.5842 5.74027 18.6653C6.2679 17.9956 6.83481 17.3125 7.42281 16.6041C10.1103 13.366 13.2385 9.59687 15.0729 4.14505L16.4672 0ZM16.4546 37.7074L16.4672 42.4051C22.9485 42.4051 28.224 37.1296 28.2115 30.6608H23.5137C23.5137 34.5421 20.361 37.7074 16.4672 37.7074H16.4546ZM22.4219 18.2855L11.3429 17.7266C11.0087 17.71 10.6761 17.782 10.3787 17.9354C10.0813 18.0887 9.8297 18.3178 9.64935 18.5996L3.67291 27.9488C3.62057 28.0325 3.59088 28.1283 3.58678 28.2269C3.58268 28.3255 3.6043 28.4235 3.64952 28.5112C3.69474 28.5989 3.762 28.6733 3.84469 28.7272C3.92739 28.7811 4.02267 28.8125 4.12118 28.8184L15.2008 29.3734C15.3613 29.3805 15.5197 29.3676 15.6731 29.3361C15.844 29.3016 16.0102 29.2435 16.1666 29.1629C16.3335 29.0768 16.4859 28.9668 16.6194 28.837C16.7236 28.7364 16.8172 28.6232 16.8979 28.4985L22.866 19.1553C23.0146 18.9217 22.9714 18.6454 22.809 18.4678C22.7764 18.4321 22.7392 18.4006 22.6983 18.3743C22.6155 18.321 22.5202 18.2904 22.4219 18.2855ZM16.708 30.2138C17.1884 29.9661 17.597 29.5948 17.8952 29.1349L21.4643 23.5475L22.8217 26.1807C23.1254 26.7698 23.0882 27.4724 22.7351 28.0272L20.2319 31.9184C19.7831 32.6122 19.1605 33.1764 18.4261 33.5551C17.6916 33.9337 16.8708 34.1135 16.0454 34.0766L11.4307 33.8547C10.767 33.8241 10.1801 33.4432 9.8764 32.8541L8.51894 30.2209L15.148 30.5555C15.6882 30.5789 16.2277 30.4614 16.708 30.2138ZM23.6009 20.2021L26.352 25.5387C26.62 25.5716 26.8705 25.6895 27.0667 25.8752C27.2628 26.0609 27.3943 26.3045 27.4418 26.5704C27.4893 26.8363 27.4503 27.1104 27.3305 27.3525C27.2108 27.5946 27.0166 27.7919 26.7765 27.9155C26.5363 28.0392 26.2629 28.0826 25.9963 28.0394C25.7297 27.9962 25.4839 27.8686 25.2951 27.6755C25.1063 27.4824 24.9844 27.2338 24.9472 26.9663C24.91 26.6988 24.9596 26.4264 25.0886 26.1891L22.7161 21.5867L23.6009 20.2021Z" fill="#5353AA"/>
</svg>
