<svg width="10" height="12" viewBox="0 0 10 12" fill="none" xmlns="http://www.w3.org/2000/svg">
<g clip-path="url(#clip0_558_3090)">
<path d="M4.99985 -0.414062L0.29285 4.29294C0.200005 4.38578 0.126356 4.496 0.0761089 4.61731C0.0258618 4.73862 9.78277e-10 4.86864 0 4.99994C-9.78277e-10 5.13124 0.0258618 5.26126 0.0761089 5.38256C0.126356 5.50387 0.200005 5.61409 0.29285 5.70694C0.385694 5.79978 0.495916 5.87343 0.617224 5.92368C0.738531 5.97393 0.868547 5.99979 0.999849 5.99979C1.13115 5.99979 1.26117 5.97393 1.38247 5.92368C1.50378 5.87343 1.614 5.79978 1.70685 5.70694L3.99985 3.41394V10.9999C3.99985 11.2652 4.10521 11.5195 4.29274 11.707C4.48028 11.8946 4.73463 11.9999 4.99985 11.9999C5.26507 11.9999 5.51942 11.8946 5.70696 11.707C5.89449 11.5195 5.99985 11.2652 5.99985 10.9999V3.41394L8.29285 5.70694C8.3855 5.80012 8.49566 5.87407 8.617 5.92453C8.73833 5.97499 8.86844 6.00097 8.99985 6.00097C9.13126 6.00097 9.26137 5.97499 9.3827 5.92453C9.50403 5.87407 9.6142 5.80012 9.70685 5.70694C9.7998 5.61415 9.87353 5.50395 9.92384 5.38263C9.97415 5.26132 10 5.13127 10 4.99994C10 4.8686 9.97415 4.73856 9.92384 4.61724C9.87353 4.49593 9.7998 4.38573 9.70685 4.29294L4.99985 -0.414062Z" fill="#C1F2B0"/>
</g>
<defs>
<clipPath id="clip0_558_3090">
<rect width="10" height="12" fill="white"/>
</clipPath>
</defs>
</svg>
