<svg width="10" height="12" viewBox="0 0 10 12" fill="none" xmlns="http://www.w3.org/2000/svg">
<g clip-path="url(#clip0_558_3103)">
<path d="M4.99985 12.4141L0.29285 7.70706C0.200005 7.61422 0.126356 7.504 0.0761089 7.38269C0.0258618 7.26138 9.78277e-10 7.13136 0 7.00006C-9.78277e-10 6.86876 0.0258618 6.73874 0.0761089 6.61744C0.126356 6.49613 0.200005 6.38591 0.29285 6.29306C0.385694 6.20022 0.495916 6.12657 0.617224 6.07632C0.738531 6.02607 0.868547 6.00021 0.999849 6.00021C1.13115 6.00021 1.26117 6.02607 1.38247 6.07632C1.50378 6.12657 1.614 6.20022 1.70685 6.29306L3.99985 8.58606V1.00006C3.99985 0.734846 4.10521 0.480492 4.29274 0.292955C4.48028 0.105419 4.73463 6.29425e-05 4.99985 6.29425e-05C5.26507 6.29425e-05 5.51942 0.105419 5.70696 0.292955C5.89449 0.480492 5.99985 0.734846 5.99985 1.00006V8.58606L8.29285 6.29306C8.3855 6.19988 8.49566 6.12593 8.617 6.07547C8.73833 6.02501 8.86844 5.99903 8.99985 5.99903C9.13126 5.99903 9.26137 6.02501 9.3827 6.07547C9.50403 6.12593 9.6142 6.19988 9.70685 6.29306C9.7998 6.38585 9.87353 6.49605 9.92384 6.61737C9.97415 6.73868 10 6.86873 10 7.00006C10 7.1314 9.97415 7.26144 9.92384 7.38276C9.87353 7.50407 9.7998 7.61427 9.70685 7.70706L4.99985 12.4141Z" fill="white"/>
</g>
<defs>
<clipPath id="clip0_558_3103">
<rect width="10" height="12" fill="white" transform="matrix(1 0 0 -1 0 12)"/>
</clipPath>
</defs>
</svg>
