<svg width="40" height="40" viewBox="0 0 40 40" fill="none" xmlns="http://www.w3.org/2000/svg">
<circle cx="20" cy="20" r="20" fill="#D94F00"/>
<path d="M32.1741 8H8V32.44H32.1741V8Z" fill="#D94F00"/>
<path d="M27.9464 12.752H21.75V18.9573H27.9464V12.752Z" fill="white"/>
<path d="M14.2578 22.0852V22.688H15.3304V25.9059H16.0662V22.6703H17.0591V22.0586L14.2578 22.0852Z" fill="white"/>
<path d="M13.708 22.839V22.2362C13.1141 21.9703 12.4404 21.8905 11.74 22.2362C10.5965 22.7504 10.561 25.2679 11.6957 25.7644C12.3517 26.1012 13.7169 25.9417 13.8498 25.6491V23.6457H12.5024V24.1776H13.0963V25.2325C11.1461 26.181 10.7738 21.5891 13.708 22.839Z" fill="white"/>
<path d="M18.2582 24.1435H18.9585C19.5435 24.1701 19.6942 25.2604 18.9319 25.2604H18.2493V24.1435H18.2582ZM18.2582 22.601H18.9585C19.5435 22.7074 19.3308 23.5761 18.9319 23.5938H18.2493V22.601H18.2582ZM17.5312 22.0071V25.8721H19.4638C20.4566 25.5175 20.4921 23.9928 19.4638 23.8243C20.4123 23.718 20.4566 21.9805 18.8255 21.9805L17.5312 22.0071Z" fill="white"/>
<path d="M20.9436 23.0961V23.6724C21.4577 23.5217 22.5835 23.1227 22.4772 23.9826C21.4932 23.9117 20.8194 24.089 20.7042 24.7095C20.518 26.0392 21.9364 26.1633 22.5392 25.5162V25.8265H23.2218V23.4951C23.0534 22.7416 21.9364 22.644 20.9436 23.0961ZM21.5198 24.5854C21.6705 24.3904 22.1669 24.3993 22.4949 24.4879V24.9932C21.9541 25.5783 21.0854 25.3123 21.5198 24.5854Z" fill="white"/>
<path d="M24.6384 23.7704C24.8157 23.5753 25.7642 23.2119 25.9061 23.7704V25.827H26.6684V23.6463C26.5 22.7332 25.6401 22.5736 24.5852 23.1942V22.8484H23.8672V25.8358H24.6296L24.6384 23.7704Z" fill="white"/>
<path d="M29.0475 22.8301L28.0547 24.1687L29.1096 25.8086L30.0315 25.7909L28.8702 24.213L29.9163 22.8567L29.0475 22.8301Z" fill="white"/>
<path d="M27.9801 21.8555H27.2266V25.8091H27.9801V21.8555Z" fill="white"/>
<path d="M27.9464 12.752H21.75V18.9573H27.9464V12.752Z" fill="white"/>
</svg>
