<svg width="25" height="24" viewBox="0 0 25 24" fill="none" xmlns="http://www.w3.org/2000/svg">
<g clip-path="url(#clip0_558_3404)">
<path d="M6.06244 5.56515C6.33093 5.29667 6.7523 5.27412 7.04629 5.49782L7.12314 5.56491L12.2506 10.6907L17.3793 5.56197C17.6722 5.26909 18.1471 5.26909 18.44 5.56197C18.7085 5.83046 18.7308 6.2519 18.5072 6.54584L18.44 6.62263L13.3113 11.7513L18.4386 16.8758C18.7315 17.1686 18.7317 17.6436 18.4389 17.9365C18.1704 18.205 17.749 18.2275 17.455 18.0038L17.3781 17.9367L12.2506 12.812L7.1248 17.9378C6.8319 18.2307 6.35702 18.2307 6.06414 17.9378C5.79565 17.6693 5.77327 17.2479 5.99698 16.9539L6.06414 16.8772L11.19 11.7513L6.06269 6.62578C5.76973 6.33296 5.76956 5.85804 6.06244 5.56515Z" fill="#111111"/>
</g>
<defs>
<clipPath id="clip0_558_3404">
<rect width="24" height="24" fill="white" transform="translate(0.5)"/>
</clipPath>
</defs>
</svg>
