<svg width="24" height="24" viewBox="0 0 24 24" fill="none" xmlns="http://www.w3.org/2000/svg">
<path d="M4.5 17.207V19C4.5 19.1326 4.55268 19.2598 4.64645 19.3536C4.74021 19.4473 4.86739 19.5 5 19.5H6.793C6.92535 19.5 7.05229 19.4475 7.146 19.354L15.646 10.854L13.146 8.354L4.646 16.854C4.55253 16.9477 4.50003 17.0747 4.5 17.207ZM15.09 6.41L17.59 8.91L18.793 7.707C18.9805 7.51947 19.0858 7.26517 19.0858 7C19.0858 6.73484 18.9805 6.48053 18.793 6.293L17.707 5.207C17.5195 5.01953 17.2652 4.91422 17 4.91422C16.7348 4.91422 16.4805 5.01953 16.293 5.207L15.09 6.41Z" stroke="#606060"/>
</svg>
