<svg width="24" height="24" viewBox="0 0 24 24" fill="none" xmlns="http://www.w3.org/2000/svg">
<path d="M4.92913 5.14258C4.07665 5.14258 3.25908 5.48123 2.65629 6.08402C2.05349 6.68682 1.71484 7.50438 1.71484 8.35686V15.6426C1.71484 16.4951 2.05349 17.3126 2.65629 17.9154C3.25908 18.5182 4.07665 18.8569 4.92913 18.8569H13.072C13.9245 18.8569 14.742 18.5182 15.3448 17.9154C15.9476 17.3126 16.2863 16.4951 16.2863 15.6426V15.2114L19.9308 17.728C20.9251 18.4146 22.2828 17.7023 22.2828 16.4937V7.50229C22.2828 6.29372 20.9251 5.58058 19.9308 6.26801L16.2863 8.78458V8.35686C16.2863 7.50438 15.9476 6.68682 15.3448 6.08402C14.742 5.48123 13.9245 5.14258 13.072 5.14258H4.92913ZM16.2863 10.3463L20.6611 7.32572C20.6933 7.30351 20.7309 7.29053 20.77 7.28819C20.809 7.28584 20.8479 7.29421 20.8825 7.3124C20.9171 7.33058 20.9461 7.35789 20.9663 7.39136C20.9865 7.42484 20.9972 7.4632 20.9971 7.50229V16.4937C20.9972 16.5328 20.9865 16.5712 20.9663 16.6047C20.9461 16.6381 20.9171 16.6654 20.8825 16.6836C20.8479 16.7018 20.809 16.7102 20.77 16.7078C20.7309 16.7055 20.6933 16.6925 20.6611 16.6703L16.2863 13.648V10.3463ZM3.00056 8.35686C3.00056 7.84537 3.20375 7.35484 3.56542 6.99316C3.9271 6.63148 4.41764 6.42829 4.92913 6.42829H13.072C13.5835 6.42829 14.074 6.63148 14.4357 6.99316C14.7974 7.35484 15.0006 7.84537 15.0006 8.35686V15.6426C15.0006 16.1541 14.7974 16.6446 14.4357 17.0063C14.074 17.368 13.5835 17.5711 13.072 17.5711H4.92913C4.41764 17.5711 3.9271 17.368 3.56542 17.0063C3.20375 16.6446 3.00056 16.1541 3.00056 15.6426V8.35686Z" fill="white"/>
</svg>
