<svg width="24" height="24" viewBox="0 0 24 24" fill="none" xmlns="http://www.w3.org/2000/svg">
<path d="M5.15614 7.875C5.29348 9.78141 6.7077 11.25 8.24989 11.25C9.79207 11.25 11.2086 9.78188 11.3436 7.875C11.4843 5.89172 10.1075 4.5 8.24989 4.5C6.39223 4.5 5.01551 5.92781 5.15614 7.875Z" stroke="white" stroke-width="1.5" stroke-linecap="round" stroke-linejoin="round"/>
<path d="M8.25019 14.25C11.305 14.25 14.2427 15.7673 14.9786 18.7223C15.0761 19.1133 14.831 19.5 14.4292 19.5H2.07066C1.66894 19.5 1.42519 19.1133 1.52128 18.7223C2.25722 15.72 5.19487 14.25 8.25019 14.25Z" stroke="white" stroke-width="1.5" stroke-miterlimit="10"/>
<path d="M14.625 8.71594C14.7347 10.2384 15.8775 11.4375 17.1094 11.4375C18.3413 11.4375 19.486 10.2389 19.5938 8.71594C19.7058 7.13203 18.5935 6 17.1094 6C15.6254 6 14.513 7.16109 14.625 8.71594Z" stroke="white" stroke-width="1.5" stroke-linecap="round" stroke-linejoin="round"/>
<path d="M14.3433 14.3438C15.1894 13.9562 16.1213 13.8071 17.1089 13.8071C19.5464 13.8071 21.8949 15.0188 22.4831 17.379C22.5605 17.6912 22.3645 18.0001 22.0439 18.0001H16.7808" stroke="white" stroke-width="1.5" stroke-miterlimit="10" stroke-linecap="round"/>
</svg>
