<svg width="16" height="16" viewBox="0 0 16 16" fill="none" xmlns="http://www.w3.org/2000/svg">
<path d="M12.4058 9.24528C12.2422 9.24534 12.0803 9.21318 11.9292 9.15065C11.7781 9.08812 11.6408 8.99645 11.5251 8.88085C11.4095 8.76526 11.3177 8.62802 11.2551 8.47697C11.1925 8.32592 11.1602 8.16401 11.1602 8.00048C11.1601 7.83696 11.1923 7.67503 11.2548 7.52394C11.3173 7.37284 11.409 7.23554 11.5246 7.11988C11.6402 7.00421 11.7774 6.91245 11.9285 6.84982C12.0795 6.7872 12.2414 6.75494 12.405 6.75488C12.7352 6.75478 13.052 6.88587 13.2856 7.11931C13.5192 7.35276 13.6505 7.66944 13.6506 7.99968C13.6507 8.32993 13.5196 8.64669 13.2861 8.88029C13.0527 9.11388 12.736 9.24518 12.4058 9.24528Z" fill="#414141"/>
<path d="M8.13152 9.24546C8.819 9.24546 9.37632 8.68814 9.37632 8.00066C9.37632 7.31318 8.819 6.75586 8.13152 6.75586C7.44404 6.75586 6.88672 7.31318 6.88672 8.00066C6.88672 8.68814 7.44404 9.24546 8.13152 9.24546Z" fill="#414141"/>
<path d="M3.85808 9.24546C4.54557 9.24546 5.10288 8.68814 5.10288 8.00066C5.10288 7.31318 4.54557 6.75586 3.85808 6.75586C3.1706 6.75586 2.61328 7.31318 2.61328 8.00066C2.61328 8.68814 3.1706 9.24546 3.85808 9.24546Z" fill="#414141"/>
</svg>
