<svg width="96" height="96" viewBox="0 0 96 96" fill="none" xmlns="http://www.w3.org/2000/svg">
<path d="M28.2225 23.1744C28.1515 23.0761 28.0619 22.9928 27.9587 22.9292C27.8555 22.8656 27.7408 22.823 27.6212 22.8037C27.5015 22.7845 27.3792 22.789 27.2613 22.817C27.1433 22.845 27.0321 22.896 26.9339 22.9671C24.8881 24.4459 23.0027 26.1347 21.3085 28.006C21.1448 28.1808 21.0556 28.4124 21.0597 28.6518C21.0638 28.8912 21.1609 29.1196 21.3304 29.2887C21.416 29.3744 21.5177 29.4424 21.6296 29.4887C21.7416 29.535 21.8616 29.5588 21.9827 29.5586C22.112 29.5587 22.2399 29.5317 22.3581 29.4792C22.4763 29.4267 22.5821 29.35 22.6687 29.254C24.2786 27.4746 26.0706 25.8688 28.0154 24.463C28.1136 24.392 28.1969 24.3024 28.2605 24.1992C28.324 24.096 28.3667 23.9813 28.3859 23.8616C28.4051 23.742 28.4006 23.6197 28.3726 23.5018C28.3445 23.3838 28.2935 23.2726 28.2225 23.1744ZM74.6655 29.3073C74.8425 29.1388 74.9455 28.9068 74.9517 28.6625C74.958 28.4181 74.8671 28.1812 74.6989 28.0038C73.007 26.133 71.1235 24.4448 69.0794 22.9671C68.8809 22.8257 68.6345 22.7685 68.394 22.808C68.1534 22.8476 67.9383 22.9807 67.7956 23.1782C67.6528 23.3758 67.594 23.6218 67.6319 23.8625C67.6699 24.1033 67.8015 24.3193 67.9981 24.4634C69.9419 25.8686 71.7325 27.4742 73.3405 29.254C73.427 29.3511 73.5332 29.4288 73.6519 29.4819C73.7707 29.535 73.8994 29.5623 74.0295 29.5621C74.2663 29.5622 74.4941 29.4709 74.6655 29.3073ZM81.3565 44.7744C81.3955 44.9867 81.5077 45.1787 81.6737 45.3168C81.8396 45.4549 82.0487 45.5304 82.2646 45.5302C82.4026 45.5301 82.5389 45.499 82.6633 45.4393C82.7878 45.3796 82.8973 45.2927 82.9838 45.1852C83.0702 45.0776 83.1315 44.952 83.1631 44.8176C83.1947 44.6833 83.1958 44.5435 83.1663 44.4087C82.6956 42.2594 82.0275 40.1582 81.1706 38.1318C81.1223 38.0206 81.0526 37.92 80.9654 37.8357C80.8783 37.7515 80.7754 37.6852 80.6626 37.6407C80.5498 37.5962 80.4294 37.5744 80.3082 37.5764C80.187 37.5785 80.0674 37.6044 79.9562 37.6527C79.845 37.701 79.7444 37.7707 79.6601 37.8578C79.5759 37.945 79.5096 38.0479 79.4651 38.1607C79.4206 38.2734 79.3988 38.3939 79.4008 38.5151C79.4029 38.6363 79.4288 38.7559 79.4771 38.8671C80.2826 40.7747 80.9117 42.752 81.3565 44.7744ZM83.0714 53.3603C82.827 53.3458 82.5869 53.4288 82.4038 53.5912C82.2206 53.7536 82.1094 53.982 82.0946 54.2263C81.9767 56.201 81.688 58.1618 81.2317 60.0866C81.2022 60.205 81.1964 60.3281 81.2148 60.4488C81.2332 60.5694 81.2753 60.6853 81.3387 60.7895C81.4022 60.8938 81.4857 60.9845 81.5844 61.0563C81.6831 61.128 81.795 61.1796 81.9137 61.2078C82.0325 61.236 82.1556 61.2405 82.2761 61.2208C82.3966 61.2011 82.5119 61.1578 82.6155 61.0932C82.7191 61.0287 82.8089 60.9442 82.8796 60.8448C82.9503 60.7453 83.0006 60.6328 83.0276 60.5138C83.5086 58.485 83.813 56.4183 83.9374 54.3369C83.952 54.0926 83.869 53.8524 83.7066 53.6693C83.5442 53.4861 83.3157 53.375 83.0714 53.3603ZM78.6738 68.2628C78.4384 68.2626 78.2118 68.3525 78.0406 68.5141C77.9717 68.5787 77.9123 68.6544 77.865 68.7393C76.8125 70.6325 75.5818 72.421 74.1895 74.0804C74.0361 74.2535 73.9533 74.4779 73.9576 74.7091C73.9618 74.9403 74.0528 75.1615 74.2124 75.3288C74.2986 75.4193 74.4022 75.4914 74.5171 75.5406C74.632 75.5897 74.7557 75.615 74.8807 75.6148C75.0156 75.615 75.1489 75.5856 75.2712 75.5286C75.3935 75.4717 75.5019 75.3886 75.5885 75.2852C77.0552 73.5395 78.3522 71.658 79.462 69.6663C79.5474 69.5264 79.5939 69.3662 79.5969 69.2023C79.5999 69.0384 79.5592 68.8767 79.4789 68.7337C79.3986 68.5908 79.2817 68.4718 79.1402 68.3891C78.9987 68.3063 78.8378 68.2627 78.6738 68.2628ZM66.4606 80.8988C60.9592 84.4381 54.5778 86.309 48.0055 86.309C41.4334 86.309 35.0518 84.4381 29.5504 80.8988C29.3446 80.7682 29.0954 80.7243 28.8573 80.7768C28.6191 80.8292 28.4114 80.9738 28.2795 81.1788C28.1476 81.3839 28.1022 81.6328 28.1532 81.8713C28.2042 82.1097 28.3474 82.3183 28.5517 82.4514C34.3514 86.1827 41.0786 88.1551 48.0055 88.1551C54.9325 88.1551 61.6597 86.1827 67.4594 82.4514C67.5621 82.3862 67.651 82.3014 67.7208 82.2017C67.7906 82.102 67.84 81.9895 67.8662 81.8707C67.8924 81.7518 67.8948 81.629 67.8734 81.5092C67.8519 81.3894 67.8069 81.275 67.7411 81.1727C67.6753 81.0703 67.5898 80.982 67.4897 80.9128C67.3896 80.8436 67.2768 80.7948 67.1578 80.7694C67.0388 80.7439 66.9159 80.7423 66.7963 80.7645C66.6766 80.7867 66.5625 80.8324 66.4606 80.8988ZM18.1438 68.7388C18.1007 68.6613 18.0466 68.5904 17.9834 68.5283C17.823 68.3703 17.6103 68.2763 17.3855 68.2641C17.1607 68.252 16.9391 68.3224 16.7626 68.4621C16.586 68.6019 16.4667 68.8014 16.4269 69.023C16.3872 69.2446 16.4299 69.4732 16.5469 69.6655C17.6583 71.6567 18.9551 73.5386 20.4201 75.2862C20.4375 75.3066 20.4574 75.3284 20.4766 75.3474C20.5622 75.4332 20.664 75.5011 20.7759 75.5475C20.8879 75.5938 21.0079 75.6177 21.129 75.6176C21.2502 75.6175 21.3702 75.5935 21.4821 75.547C21.594 75.5005 21.6956 75.4324 21.7811 75.3465C21.9453 75.1819 22.0414 74.9614 22.0503 74.729C22.0591 74.4967 21.9801 74.2695 21.8289 74.0928C20.4343 72.4284 19.2004 70.6358 18.1438 68.7388ZM13.9156 54.2396C13.9051 54.0022 13.8033 53.7779 13.6315 53.6136C13.4597 53.4493 13.2311 53.3577 12.9934 53.3579C12.8675 53.358 12.7429 53.3839 12.6273 53.4339C12.5117 53.4839 12.4076 53.557 12.3213 53.6487C12.235 53.7404 12.1684 53.8488 12.1255 53.9672C12.0826 54.0857 12.0644 54.2116 12.072 54.3373C12.1968 56.4187 12.5018 58.4854 12.9834 60.5142C13.0402 60.7523 13.1891 60.9581 13.3976 61.0864C13.606 61.2147 13.8569 61.2551 14.095 61.1985C14.2129 61.1705 14.3242 61.1195 14.4224 61.0485C14.5206 60.9774 14.6039 60.8877 14.6674 60.7845C14.731 60.6813 14.7736 60.5666 14.7928 60.4469C14.812 60.3272 14.8074 60.2049 14.7794 60.087C14.3234 58.1664 14.0344 56.21 13.9156 54.2396ZM13.7446 45.5284C13.9582 45.5282 14.1652 45.454 14.3303 45.3185C14.4954 45.1829 14.6084 44.9943 14.6501 44.7847C15.097 42.7581 15.7273 40.7763 16.5334 38.8639C16.5827 38.7524 16.6094 38.6321 16.612 38.5102C16.6146 38.3882 16.5929 38.267 16.5484 38.1534C16.5038 38.0399 16.4371 37.9363 16.3523 37.8487C16.2675 37.761 16.1661 37.6911 16.054 37.6429C15.942 37.5946 15.8215 37.5691 15.6995 37.5677C15.5776 37.5664 15.4565 37.5892 15.3434 37.6349C15.2303 37.6805 15.1274 37.7482 15.0406 37.8339C14.9538 37.9196 14.8848 38.0216 14.8377 38.1342C13.983 40.1597 13.3153 42.2591 12.8431 44.4063C12.8132 44.5412 12.814 44.6811 12.8454 44.8156C12.8768 44.9502 12.938 45.076 13.0245 45.1837C13.1111 45.2914 13.2207 45.3783 13.3453 45.438C13.47 45.4976 13.6064 45.5285 13.7446 45.5284Z" fill="#34A853"/>
<path d="M82.261 44.6062C84.4358 41.9883 87.493 40.2455 90.6776 39.5957C91.6561 42.6197 91.1504 46.1772 88.9589 49.3432C87.445 51.5366 85.3459 53.2148 83.0124 54.2817C81.9749 54.758 80.8893 55.1124 79.789 55.3379C78.8085 52.3175 79.3219 48.7545 81.5078 45.5939C81.7432 45.253 81.9946 44.9234 82.261 44.6062Z" fill="#5353AA"/>
<path d="M78.6663 69.1867C77.2005 69.1405 75.7531 68.8823 74.3906 68.4242C75.0608 65.3172 77.2872 62.4944 80.7672 60.8532C84.2509 59.2119 88.2515 59.1049 91.7057 60.2642C91.0392 63.3713 88.8146 66.1941 85.3346 67.8355C83.2226 68.8304 80.9205 69.2605 78.6663 69.1867Z" fill="#B0B0D8"/>
<path d="M88.1581 30.0007C88.9228 30.0007 89.5427 29.3808 89.5427 28.6161C89.5427 27.8514 88.9228 27.2314 88.1581 27.2314C87.3934 27.2314 86.7734 27.8514 86.7734 28.6161C86.7734 29.3808 87.3934 30.0007 88.1581 30.0007Z" fill="#EEEEF7"/>
<path d="M87.2362 77.0778C88.0009 77.0778 88.6208 76.4579 88.6208 75.6932C88.6208 74.9285 88.0009 74.3086 87.2362 74.3086C86.4715 74.3086 85.8516 74.9285 85.8516 75.6932C85.8516 76.4579 86.4715 77.0778 87.2362 77.0778Z" fill="#EEEEF7"/>
<path d="M83.5385 19.3855C86.5973 19.3855 89.0769 16.9059 89.0769 13.8471C89.0769 10.7882 86.5973 8.30859 83.5385 8.30859C80.4797 8.30859 78 10.7882 78 13.8471C78 16.9059 80.4797 19.3855 83.5385 19.3855Z" fill="#CACAE5"/>
<path d="M74.0234 28.6351C74.6048 26.4049 75.6977 24.3391 77.1563 22.6406C79.7816 24.4332 81.5613 27.5606 81.768 31.4025C81.901 33.8874 81.36 36.3299 80.3186 38.4917C79.7533 39.6677 79.0371 40.7649 78.1881 41.7557C75.5629 39.9649 73.7851 36.8412 73.5783 32.9994C73.4993 31.5132 73.6599 30.0419 74.0234 28.6351Z" fill="#B0B0D8"/>
<path d="M74.8776 74.6911C77.0155 75.317 78.9853 76.4173 80.6046 77.8554C78.775 80.4511 75.6218 82.1773 71.7763 82.3287C70.1239 82.3914 68.4938 82.1568 66.9559 81.6751C64.9141 81.0382 63.0329 79.9674 61.4766 78.5865C63.3116 75.9908 66.4612 74.2647 70.3104 74.1135C71.8721 74.0542 73.4136 74.261 74.8776 74.6911Z" fill="#5353AA"/>
<path d="M75.2362 88.154C76.0009 88.154 76.6208 87.5341 76.6208 86.7694C76.6208 86.0047 76.0009 85.3848 75.2362 85.3848C74.4715 85.3848 73.8516 86.0047 73.8516 86.7694C73.8516 87.5341 74.4715 88.154 75.2362 88.154Z" fill="#EEEEF7"/>
<path d="M70.619 11.5388C71.3837 11.5388 72.0036 10.9188 72.0036 10.1541C72.0036 9.38944 71.3837 8.76953 70.619 8.76953C69.8543 8.76953 69.2344 9.38944 69.2344 10.1541C69.2344 10.9188 69.8543 11.5388 70.619 11.5388Z" fill="#EEEEF7"/>
<path d="M63.821 13.8287C66.6639 16.4207 68.2887 20.0761 68.5342 23.7149C65.4103 24.2816 61.9469 23.3032 59.102 20.7075C56.2591 18.1173 54.6345 14.4601 54.3906 10.8213C57.5128 10.2546 60.976 11.2349 63.821 13.8287Z" fill="#5353AA"/>
<path d="M48 26.3086C61.2535 26.3086 72 37.0532 72 50.3086C72 63.564 61.2535 74.3086 48 74.3086C34.7446 74.3086 24 63.564 24 50.3086C24 37.0532 34.7446 26.3086 48 26.3086Z" fill="#34A853"/>
<path d="M59.7552 46.14L52.4908 51.4163L55.2654 59.9548L48.0026 54.6785L40.738 59.9548L43.513 51.4163L36.25 46.14H45.228L48.0026 37.6016L50.7774 46.14H59.7552Z" fill="white"/>
<path d="M41.6192 10.8194C41.3699 14.46 39.7472 18.1154 36.9023 20.7055C34.0573 23.3012 30.5995 24.2815 27.4721 23.7148C27.7158 20.0741 29.3443 16.4188 32.189 13.8286C35.0339 11.2329 38.4918 10.2526 41.6192 10.8194ZM21.125 74.6926C22.5909 74.2606 24.1343 74.0538 25.6981 74.1129C29.5435 74.2643 32.6967 75.9905 34.5263 78.5862C32.9699 79.9671 31.0907 81.0378 29.0487 81.6748C27.5109 82.1564 25.8807 82.3911 24.2286 82.3283C20.3831 82.1769 17.2298 80.4506 15.3984 77.8551C17.0173 76.4188 18.9872 75.3185 21.125 74.6926Z" fill="#5353AA"/>
<path d="M25.3846 9.69306C26.1493 9.69306 26.7692 9.07315 26.7692 8.30844C26.7692 7.54374 26.1493 6.92383 25.3846 6.92383C24.6199 6.92383 24 7.54374 24 8.30844C24 9.07315 24.6199 9.69306 25.3846 9.69306Z" fill="#EEEEF7"/>
<path d="M23.5409 88.154C24.3056 88.154 24.9255 87.5341 24.9255 86.7694C24.9255 86.0047 24.3056 85.3848 23.5409 85.3848C22.7762 85.3848 22.1562 86.0047 22.1562 86.7694C22.1562 87.5341 22.7762 88.154 23.5409 88.154Z" fill="#EEEEF7"/>
<path d="M15.6858 38.4917C14.6464 36.3299 14.1055 33.8874 14.2421 31.4025C14.4489 27.5606 16.2288 24.4332 18.8483 22.6406C20.3086 24.3372 21.4015 26.4049 21.9812 28.6351C22.3467 30.0419 22.5075 31.5132 22.4281 32.9994C22.2214 36.8412 20.4415 39.9649 17.8181 41.7557C16.9763 40.7791 16.2563 39.6769 15.6858 38.4917ZM17.3344 69.1877C15.0803 69.2616 12.78 68.8314 10.6716 67.8365C7.19164 66.1951 4.96721 63.3723 4.29688 60.2652C7.31367 59.2537 10.7418 59.2057 13.8784 60.3003C14.3381 60.4591 14.7904 60.6437 15.2353 60.8542C18.7155 62.4954 20.94 65.3182 21.6101 68.4252C20.2476 68.8831 18.8003 69.1415 17.3344 69.1877Z" fill="#B0B0D8"/>
<path d="M13.7431 44.6043C14.0093 44.9224 14.2606 45.2526 14.4964 45.5939C16.6878 48.7545 17.1955 52.3175 16.2153 55.3379C15.1042 55.1095 14.0227 54.7552 12.9919 54.2817C10.6603 53.2129 8.56302 51.5346 7.04733 49.3432C4.85945 46.1772 4.34807 42.6197 5.32838 39.5957C8.51668 40.2455 11.5721 41.9883 13.7431 44.6043Z" fill="#5353AA"/>
<path d="M12.0048 81.6934C14.043 81.6934 15.6971 83.3457 15.6971 85.3857C15.6971 87.4257 14.043 89.078 12.0048 89.078C9.96481 89.078 8.3125 87.4257 8.3125 85.3857C8.3125 83.3457 9.96481 81.6934 12.0048 81.6934Z" fill="#CACAE5"/>
<path d="M9.69712 24.4626C10.4618 24.4626 11.0817 23.8427 11.0817 23.078C11.0817 22.3133 10.4618 21.6934 9.69712 21.6934C8.93241 21.6934 8.3125 22.3133 8.3125 23.078C8.3125 23.8427 8.93241 24.4626 9.69712 24.4626Z" fill="#EEEEF7"/>
<path d="M48.0018 69.6931C37.3133 69.6931 28.6172 60.9971 28.6172 50.3084C28.6172 50.0636 28.7144 49.8288 28.8875 49.6557C29.0607 49.4826 29.2954 49.3854 29.5403 49.3854C29.7851 49.3854 30.0199 49.4826 30.193 49.6557C30.3661 49.8288 30.4633 50.0636 30.4633 50.3084C30.4633 59.9791 38.3311 67.8469 48.0018 67.8469C57.6727 67.8469 65.5403 59.9791 65.5403 50.3084C65.5403 40.6377 57.6727 32.77 48.0018 32.77C47.757 32.77 47.5222 32.6727 47.3491 32.4996C47.176 32.3265 47.0787 32.0917 47.0787 31.8469C47.0787 31.6021 47.176 31.3673 47.3491 31.1942C47.5222 31.0211 47.757 30.9238 48.0018 30.9238C58.6905 30.9238 67.3864 39.6198 67.3864 50.3084C67.3864 60.9971 58.6905 69.6931 48.0018 69.6931Z" fill="#149C4F"/>
</svg>
