<svg width="40" height="40" viewBox="0 0 40 40" fill="none" xmlns="http://www.w3.org/2000/svg">
<circle cx="20" cy="20" r="20" fill="#929292"/>
<path fill-rule="evenodd" clip-rule="evenodd" d="M24 17C24 18.0609 23.5786 19.0783 22.8284 19.8284C22.0783 20.5786 21.0609 21 20 21C18.9391 21 17.9217 20.5786 17.1716 19.8284C16.4214 19.0783 16 18.0609 16 17C16 15.9391 16.4214 14.9217 17.1716 14.1716C17.9217 13.4214 18.9391 13 20 13C21.0609 13 22.0783 13.4214 22.8284 14.1716C23.5786 14.9217 24 15.9391 24 17ZM22 17C22 17.5304 21.7893 18.0391 21.4142 18.4142C21.0391 18.7893 20.5304 19 20 19C19.4696 19 18.9609 18.7893 18.5858 18.4142C18.2107 18.0391 18 17.5304 18 17C18 16.4696 18.2107 15.9609 18.5858 15.5858C18.9609 15.2107 19.4696 15 20 15C20.5304 15 21.0391 15.2107 21.4142 15.5858C21.7893 15.9609 22 16.4696 22 17Z" fill="white"/>
<path fill-rule="evenodd" clip-rule="evenodd" d="M20 9C13.925 9 9 13.925 9 20C9 26.075 13.925 31 20 31C26.075 31 31 26.075 31 20C31 13.925 26.075 9 20 9ZM11 20C11 22.09 11.713 24.014 12.908 25.542C13.7472 24.4399 14.8299 23.5467 16.0714 22.9323C17.313 22.3179 18.6797 21.9988 20.065 22C21.4323 21.9987 22.7819 22.3095 24.0109 22.9088C25.2399 23.508 26.316 24.3799 27.157 25.458C28.0234 24.3216 28.6068 22.9952 28.8589 21.5886C29.111 20.182 29.0244 18.7355 28.6065 17.369C28.1886 16.0024 27.4512 14.755 26.4555 13.73C25.4598 12.705 24.2343 11.9319 22.8804 11.4745C21.5265 11.0172 20.0832 10.8888 18.6699 11.1C17.2565 11.3112 15.9138 11.8559 14.7528 12.6891C13.5917 13.5222 12.6458 14.6199 11.9932 15.8912C11.3406 17.1625 11.0002 18.571 11 20ZM20 29C17.9339 29.0031 15.9303 28.2923 14.328 26.988C14.9729 26.0647 15.8313 25.3109 16.8302 24.7907C17.829 24.2705 18.9388 23.9992 20.065 24C21.1772 23.9991 22.2735 24.2636 23.2629 24.7714C24.2524 25.2793 25.1064 26.0159 25.754 26.92C24.1393 28.2667 22.1026 29.0029 20 29Z" fill="white"/>
</svg>
