<svg width="20" height="20" viewBox="0 0 20 20" fill="none" xmlns="http://www.w3.org/2000/svg">
<path d="M3.69396 9.99958L0.298961 1.27158C0.246984 1.13832 0.234193 0.992989 0.262096 0.852708C0.29 0.712426 0.357434 0.583049 0.456447 0.479831C0.55546 0.376614 0.681923 0.303861 0.820924 0.270151C0.959924 0.236441 1.10567 0.243181 1.24096 0.289575L1.33396 0.328575L19.334 9.32858C19.45 9.38655 19.5491 9.47364 19.6214 9.58134C19.6938 9.68905 19.737 9.81368 19.7467 9.94306C19.7565 10.0724 19.7326 10.2021 19.6772 10.3195C19.6219 10.4368 19.537 10.5378 19.431 10.6126L19.334 10.6706L1.33396 19.6706C0.750961 19.9616 0.116961 19.4256 0.268961 18.8226L0.298961 18.7276L3.69396 9.99958ZM2.40196 2.53958L5.01196 9.24958H11.639C11.8202 9.24958 11.9953 9.31522 12.1319 9.43434C12.2685 9.55347 12.3573 9.71802 12.382 9.89758L12.389 9.99958C12.3889 10.181 12.3231 10.3562 12.2038 10.4928C12.0845 10.6294 11.9197 10.7181 11.74 10.7426L11.639 10.7496H5.00996L2.40096 17.4596L17.322 9.99958L2.40196 2.53958Z" fill="#5353AA"/>
</svg>
