<svg width="24" height="24" viewBox="0 0 24 24" fill="none" xmlns="http://www.w3.org/2000/svg">
<path d="M9.92059 1.5C9.76181 1.50001 9.60712 1.55041 9.47881 1.64394C9.3505 1.73748 9.25518 1.86933 9.20659 2.0205L8.38159 4.584C8.03509 4.7535 7.70359 4.944 7.38709 5.1585L4.75309 4.5915C4.59779 4.55834 4.43597 4.57534 4.29095 4.64003C4.14592 4.70473 4.02517 4.81379 3.94609 4.9515L1.86709 8.55C1.7877 8.68763 1.75408 8.84693 1.77106 9.0049C1.78805 9.16288 1.85476 9.31139 1.96159 9.429L3.76909 11.424C3.74276 11.8065 3.74276 12.1905 3.76909 12.573L1.96159 14.571C1.85476 14.6886 1.78805 14.8371 1.77106 14.9951C1.75408 15.1531 1.7877 15.3124 1.86709 15.45L3.94609 19.05C4.02539 19.1874 4.14623 19.2962 4.29124 19.3606C4.43625 19.425 4.59795 19.4418 4.75309 19.4085L7.38709 18.8415C7.70209 19.0545 8.03509 19.2465 8.38009 19.416L9.20659 21.9795C9.25518 22.1307 9.3505 22.2625 9.47881 22.3561C9.60712 22.4496 9.76181 22.5 9.92059 22.5H14.0786C14.2374 22.5 14.3921 22.4496 14.5204 22.3561C14.6487 22.2625 14.744 22.1307 14.7926 21.9795L15.6161 19.4175C15.9616 19.2485 16.295 19.0555 16.6136 18.84L19.2461 19.4085C19.4014 19.4417 19.5632 19.4247 19.7082 19.36C19.8533 19.2953 19.974 19.1862 20.0531 19.0485L22.1321 15.45C22.2115 15.3124 22.2451 15.1531 22.2281 14.9951C22.2111 14.8371 22.1444 14.6886 22.0376 14.571L20.2301 12.573C20.2563 12.1914 20.2563 11.8086 20.2301 11.427L22.0376 9.429C22.1444 9.31139 22.2111 9.16288 22.2281 9.0049C22.2451 8.84693 22.2115 8.68763 22.1321 8.55L20.0531 4.95C19.9738 4.81256 19.853 4.70381 19.7079 4.63939C19.5629 4.57497 19.4012 4.55821 19.2461 4.5915L16.6136 5.16C16.2956 4.9455 15.9626 4.752 15.6161 4.5825L14.7911 2.0205C14.7427 1.86982 14.6478 1.73832 14.5201 1.64482C14.3924 1.55133 14.2384 1.50064 14.0801 1.5H9.92209H9.92059ZM10.4696 3H13.5296L14.3816 5.6505L14.9561 5.931C15.2385 6.0692 15.5112 6.22657 15.7721 6.402L16.3031 6.762L19.0271 6.174L20.5571 8.826L18.6896 10.893L18.7346 11.529C18.7562 11.8426 18.7562 12.1574 18.7346 12.471L18.6896 13.107L20.5601 15.174L19.0286 17.826L16.3046 17.2395L15.7736 17.598C15.5127 17.7734 15.24 17.9308 14.9576 18.069L14.3831 18.3495L13.5296 21H10.4666L9.61159 18.348L9.03859 18.069C8.75647 17.9311 8.48431 17.7738 8.22409 17.598L7.69459 17.2395L4.96909 17.826L3.43909 15.174L5.30809 13.107L5.26309 12.471C5.24146 12.1569 5.24146 11.8416 5.26309 11.5275L5.30809 10.8915L3.43759 8.826L4.96909 6.174L7.69459 6.759L8.22409 6.402C8.48431 6.22625 8.75647 6.06886 9.03859 5.931L9.61159 5.652L10.4681 3H10.4696ZM11.9996 7.5C10.8061 7.5 9.66153 7.97411 8.81761 8.81802C7.9737 9.66193 7.49959 10.8065 7.49959 12C7.49959 13.1935 7.9737 14.3381 8.81761 15.182C9.66153 16.0259 10.8061 16.5 11.9996 16.5C13.1931 16.5 14.3377 16.0259 15.1816 15.182C16.0255 14.3381 16.4996 13.1935 16.4996 12C16.4996 10.8065 16.0255 9.66193 15.1816 8.81802C14.3377 7.97411 13.1931 7.5 11.9996 7.5ZM11.9996 9C12.7952 9 13.5583 9.31607 14.1209 9.87868C14.6835 10.4413 14.9996 11.2044 14.9996 12C14.9996 12.7956 14.6835 13.5587 14.1209 14.1213C13.5583 14.6839 12.7952 15 11.9996 15C11.2039 15 10.4409 14.6839 9.87827 14.1213C9.31566 13.5587 8.99959 12.7956 8.99959 12C8.99959 11.2044 9.31566 10.4413 9.87827 9.87868C10.4409 9.31607 11.2039 9 11.9996 9Z" fill="white"/>
</svg>
