<svg width="24" height="24" viewBox="0 0 24 24" fill="none" xmlns="http://www.w3.org/2000/svg">
<path d="M11.5 15.577V6.927L9.17 9.257L8.462 8.538L12 5L15.538 8.538L14.831 9.258L12.5 6.927V15.577H11.5ZM6.615 19C6.155 19 5.771 18.846 5.463 18.538C5.155 18.23 5.00067 17.8457 5 17.385V14.962H6V17.385C6 17.5383 6.064 17.6793 6.192 17.808C6.32 17.9367 6.461 18.0007 6.615 18H17.385C17.5383 18 17.6793 17.936 17.808 17.808C17.9367 17.68 18.0007 17.539 18 17.385V14.962H19V17.385C19 17.845 18.846 18.229 18.538 18.537C18.23 18.845 17.8457 18.9993 17.385 19H6.615Z" fill="#5353AA"/>
</svg>
